<?xml version="1.0" standalone="no"?><!DOCTYPE svg PUBLIC "-//W3C//DTD SVG 1.1//EN" "http://www.w3.org/Graphics/SVG/1.1/DTD/svg11.dtd"><svg width="200" height="200" viewBox="0 0 200 200" version="1.1" xmlns="http://www.w3.org/2000/svg" xmlns:xlink="http://www.w3.org/1999/xlink"><defs><style type="text/css"><![CDATA[
@font-face { font-family: ifont; src: url("//at.alicdn.com/t/font_1442373896_4754455.eot?#iefix") format("embedded-opentype"), url("//at.alicdn.com/t/font_1442373896_4754455.woff") format("woff"), url("//at.alicdn.com/t/font_1442373896_4754455.ttf") format("truetype"), url("//at.alicdn.com/t/font_1442373896_4754455.svg#ifont") format("svg"); }

]]></style></defs><g class="transform-group"><g transform="scale(0.1953125, 0.1953125)"><path d="M823.818795 442.814268l-20.941961 0L802.876834 322.822406c0-13.066597-5.088902-25.351388-14.328333-34.592866L642.22083 141.903917c-9.239432-9.239432-21.524223-14.328333-34.591843-14.328333L276.078803 127.575584c-12.896728 0-26.27134 4.695952-36.694737 12.882402-11.776208 9.249665-18.260899 21.596877-18.260899 34.769898l0 267.586384-20.941961 0c-24.836665 0-45.041846 20.206204-45.041846 45.041846l0 183.638437c0 24.836665 20.205181 45.041846 45.041846 45.041846l20.941961 0 0 132.236743c0 28.082592 28.962635 47.6523 54.955636 47.6523L753.955634 896.42544c26.974351 0 48.921199-21.945825 48.921199-48.921199L802.876834 716.535373l20.941961 0c24.836665 0 45.041846-20.205181 45.041846-45.041846L868.86064 487.85509C868.859617 463.019449 848.654436 442.814268 823.818795 442.814268zM773.572414 302.19767 655.4399 302.19767c-15.752776 0-27.185152-11.4334-27.185152-27.249621l-0.73985-118.79664c0.077771 0.075725 0.158612 0.147356 0.23536 0.224104L773.572414 302.19767zM241.58929 175.227883c0-12.57234 15.066137-27.186176 34.489512-27.186176l331.003739 0c-0.049119 0.415462-0.080841 0.835018-0.077771 1.263783l0.783853 125.706003c0 27.16571 20.48659 47.6523 47.651276 47.6523l126.966717 0c0 0.053212 0.004093 0.105401 0.004093 0.158612l0 119.990838L241.58929 442.813245 241.58929 175.227883zM782.41071 847.503217c0 15.690354-12.764722 28.455075-28.455075 28.455075L276.078803 875.958292c-15.94925 0-34.489512-11.875468-34.489512-27.186176L241.58929 716.535373l540.821419 0L782.41071 847.503217zM848.393493 671.493527c0 13.550621-11.024078 24.575722-24.575722 24.575722L200.181205 696.069249c-13.550621 0-24.575722-11.024078-24.575722-24.575722L175.605483 487.85509c0-13.550621 11.024078-24.575722 24.575722-24.575722l623.63759 0c13.550621 0 24.575722 11.024078 24.575722 24.575722L848.394517 671.493527zM371.995339 514.526543c-3.904936-4.952802-9.455349-9.078773-16.659425-12.382005-7.204076-3.299139-16.511046-4.952802-27.915793-4.952802l-70.91512 0 0 160.741961 28.14092 0 0-61.684898 42.774199 0c11.404748 0 20.711717-1.610684 27.915793-4.839215 7.204076-3.225461 12.754488-7.316639 16.659425-12.269441 3.900843-4.952802 6.563486-10.316973 7.992021-16.096607 1.424442-5.776563 2.13871-11.143805 2.13871-16.095583s-0.714268-10.355859-2.13871-16.20917C378.558825 524.882402 375.896182 519.479345 371.995339 514.526543zM351.396185 559.439452c-1.727341 3.37691-3.978614 6.077416-6.753821 8.104585-2.7793 2.025123-5.818519 3.489474-9.117658 4.389984-3.303232 0.900509-6.528694 1.349741-9.680477 1.349741l-41.198308 0 0-53.130058 41.648562 0c3.750417 0 7.277754 0.376577 10.580986 1.125637 3.300162 0.753153 6.225795 2.13871 8.779967 4.164856 2.550079 2.026146 4.576225 4.76656 6.078439 8.217149 1.49812 3.454682 2.251274 7.80578 2.251274 13.057387C353.98515 551.824007 353.119433 556.063565 351.396185 559.439452zM653.579529 657.932674 681.72045 657.932674 681.72045 586.567299 754.436588 586.567299 754.436588 563.604308 681.72045 563.604308 681.72045 521.506515 764.567319 521.506515 764.567319 497.191736 653.579529 497.191736ZM564.842509 520.718569c-5.704932-7.277754-13.057387-13.018501-22.062482-17.222243-9.006118-4.199649-19.663852-6.303566-31.968086-6.303566l-66.6377 0 0 160.740938 66.6377 0c12.304234 0 22.961968-2.099824 31.968086-6.303566 9.005095-4.199649 16.356526-9.940396 22.062482-17.222243 5.701862-7.277754 9.94142-15.794731 12.719696-25.551956 2.77623-9.754155 4.164856-20.184715 4.164856-31.292704 0-11.105942-1.388627-21.535479-4.164856-31.292704C574.783928 536.515347 570.545394 527.999392 564.842509 520.718569zM551.448454 600.187505c-1.428535 6.978948-4.130064 13.05841-8.104585 18.235316-3.978614 5.178953-9.455349 9.231245-16.435321 12.156878-6.977925 2.926656-15.948227 4.389984-26.90272 4.389984l-27.690666 0 0-114.814955 27.690666 0c10.954493 0 19.924795 1.463328 26.90272 4.389984 6.978948 2.926656 12.456706 6.978948 16.435321 12.155854 3.974521 5.178953 6.67605 11.256368 8.104585 18.235316 1.425466 6.978948 2.13871 14.520715 2.13871 22.6253S552.872896 593.208557 551.448454 600.187505z" fill="#000000"></path></g></g></svg>